<?xml version="1.0" encoding="UTF-8" standalone="no"?>
<svg
   xmlns:dc="http://purl.org/dc/elements/1.1/"
   xmlns:cc="http://creativecommons.org/ns#"
   xmlns:rdf="http://www.w3.org/1999/02/22-rdf-syntax-ns#"
   xmlns:svg="http://www.w3.org/2000/svg"
   xmlns="http://www.w3.org/2000/svg"
   viewBox="0 0 439.58267 150.62666"
   height="150.62666"
   width="439.58267"
   xml:space="preserve"
   id="svg10"
   version="1.1"><metadata
     id="metadata16"><rdf:RDF><cc:Work
         rdf:about=""><dc:format>image/svg+xml</dc:format><dc:type
           rdf:resource="http://purl.org/dc/dcmitype/StillImage" /><dc:title></dc:title></cc:Work></rdf:RDF></metadata><defs
     id="defs14"><clipPath
       id="clipPath26"
       clipPathUnits="userSpaceOnUse"><path
         id="path24"
         d="M 0,112.97 H 329.687 V 0 H 0 Z" /></clipPath></defs><g
     transform="matrix(1.3333333,0,0,-1.3333333,0,150.62667)"
     id="g18"><g
       id="g20"><g
         clip-path="url(#clipPath26)"
         id="g22"><g
           transform="translate(122.7041,112.9697)"
           id="g28"><path
             id="path30"
             style="fill:#a12421;fill-opacity:1;fill-rule:evenodd;stroke:none"
             d="m 0,0 -43.634,-38.767 -22.457,-19.895 -10.93,-9.735 -45.683,-40.901 h 23.652 4.355 l 23.738,21.006 3.843,3.244 7.77,7.002 8.283,7.515 1.964,1.622 23.824,21.518 26.983,24.251 -7.088,-38.767 -1.537,-8.624 -0.17,-1.11 -3.245,-17.762 -0.171,-1.024 h -52.771 c 0.342,-9.735 15.456,-18.871 21.348,-18.871 h 11.271 16.651 11.869 10.845 l 3.586,19.895 3.501,18.872 L 28.605,0 Z" /></g><g
           transform="translate(137.6469,3.2446)"
           id="g32"><path
             id="path34"
             style="fill:#1f1a17;fill-opacity:1;fill-rule:evenodd;stroke:none"
             d="m 0,0 c 1.366,-0.085 2.903,-0.085 4.696,-0.085 4.013,0 7.173,0.512 9.222,1.451 2.135,0.94 3.416,2.391 3.672,4.014 0.342,1.708 -0.427,2.903 -2.049,3.757 -1.708,0.854 -4.27,1.281 -7.942,1.281 -2.049,0 -3.927,-0.086 -5.55,-0.171 z m 4.44,9.222 c 0.683,0.086 1.708,0.171 3.074,0.171 5.465,0 7.941,-1.537 7.344,-4.013 -0.513,-2.818 -3.843,-4.441 -9.393,-4.441 -1.025,0 -1.964,0 -2.562,0.086 z" /></g><g
           transform="translate(161.9829,3.2446)"
           id="g36"><path
             id="path38"
             style="fill:#1f1a17;fill-opacity:1;fill-rule:evenodd;stroke:none"
             d="M 0,0 1.452,7.429 H -1.11 L -2.562,0 Z m 0.342,8.71 c 1.024,0 1.793,0.341 1.878,0.853 0.086,0.428 -0.512,0.855 -1.537,0.855 -0.854,0 -1.622,-0.427 -1.708,-0.855 C -1.11,9.051 -0.598,8.71 0.342,8.71" /></g><g
           transform="translate(181.622,8.624)"
           id="g40"><path
             id="path42"
             style="fill:#1f1a17;fill-opacity:1;fill-rule:evenodd;stroke:none"
             d="m 0,0 c 0.256,0.939 0.428,1.537 0.599,2.049 h -2.307 l -0.427,-1.11 c -0.511,0.598 -1.707,1.281 -4.268,1.281 -3.33,0 -6.831,-1.451 -7.259,-3.928 -0.427,-2.135 1.793,-3.672 5.466,-3.672 2.219,0 3.926,0.598 4.781,1.281 H -3.33 L -3.501,-4.953 C -3.842,-6.831 -5.977,-7.6 -8.624,-7.6 c -1.793,0 -3.245,0.342 -4.184,0.598 l -0.854,-1.025 c 1.024,-0.426 2.989,-0.597 4.696,-0.597 1.793,0 3.928,0.256 5.465,0.854 1.537,0.683 2.392,1.707 2.733,3.501 z m -2.987,-2.22 c 0,-0.256 -0.172,-0.513 -0.343,-0.683 -0.769,-0.94 -2.305,-1.452 -3.928,-1.452 -2.818,0 -4.098,1.281 -3.757,2.733 0.342,1.707 2.305,2.817 4.868,2.817 1.963,0 3.073,-0.683 3.416,-1.451 0,-0.171 0.085,-0.427 0,-0.598 z" /></g><g
           transform="translate(189.3076,3.2446)"
           id="g44"><path
             id="path46"
             style="fill:#1f1a17;fill-opacity:1;fill-rule:evenodd;stroke:none"
             d="M 0,0 1.452,7.429 H -1.195 L -2.647,0 Z m 0.341,8.71 c 1.025,0 1.708,0.341 1.879,0.853 0,0.428 -0.512,0.855 -1.537,0.855 -1.025,0 -1.708,-0.427 -1.793,-0.855 C -1.195,9.051 -0.599,8.71 0.256,8.71 Z" /></g><g
           transform="translate(197.8466,12.0395)"
           id="g48"><path
             id="path50"
             style="fill:#1f1a17;fill-opacity:1;fill-rule:evenodd;stroke:none"
             d="m 0,0 -0.256,-1.366 h -2.221 l -0.17,-1.025 h 2.22 l -0.769,-4.013 c -0.17,-0.94 -0.085,-1.623 0.597,-1.964 0.599,-0.427 1.453,-0.598 2.733,-0.598 1.025,0 1.794,0.086 2.305,0.171 L 4.525,-7.77 C 4.099,-7.856 3.757,-7.856 3.074,-7.856 c -1.537,0 -1.88,0.512 -1.708,1.452 l 0.768,4.013 h 3.758 l 0.17,1.025 H 2.305 l 0.341,1.793 z" /></g><g
           transform="translate(218.4248,7.7704)"
           id="g52"><path
             id="path54"
             style="fill:#1f1a17;fill-opacity:1;fill-rule:evenodd;stroke:none"
             d="m 0,0 c 0.256,1.537 -0.512,3.074 -4.953,3.074 -1.878,0 -3.671,-0.256 -4.951,-0.683 l 0.511,-0.854 c 1.026,0.341 2.477,0.512 3.843,0.512 2.988,0.085 3.074,-1.11 2.904,-1.707 V 0.171 c -5.55,0 -8.881,-0.939 -9.223,-2.733 -0.171,-1.11 1.11,-2.134 4.014,-2.134 2.049,0 3.756,0.512 4.61,1.11 h 0.087 l 0.085,-0.94 h 2.305 c 0.085,0.513 0.085,1.11 0.17,1.793 z m -2.987,-2.049 c 0,-0.086 -0.171,-0.257 -0.258,-0.427 -0.512,-0.598 -1.793,-1.281 -3.757,-1.281 -1.28,0 -2.391,0.427 -2.135,1.366 0.257,1.452 3.502,1.708 6.405,1.623 z" /></g><g
           transform="translate(223.6337,3.2446)"
           id="g56"><path
             id="path58"
             style="fill:#1f1a17;fill-opacity:1;fill-rule:evenodd;stroke:none"
             d="M 0,0 H 2.563 L 4.696,10.93 H 2.135 Z" /></g><g
           transform="translate(254.0322,3.2446)"
           id="g60"><path
             id="path62"
             style="fill:#1f1a17;fill-opacity:1;fill-rule:evenodd;stroke:none"
             d="m 0,0 3.843,5.38 c 1.024,1.366 1.708,2.391 2.22,3.415 H 6.148 C 6.233,7.771 6.404,6.746 6.831,5.38 L 8.368,0 h 2.648 L 18.7,10.332 H 16.054 L 12.381,5.123 C 11.527,3.843 10.76,2.647 10.161,1.537 H 10.076 C 9.905,2.647 9.649,3.843 9.308,5.123 L 7.856,10.332 H 5.123 L 1.452,5.123 C 0.513,3.757 -0.342,2.562 -0.854,1.537 h -0.084 c -0.171,0.939 -0.427,2.22 -0.855,3.586 L -3.16,10.332 H -5.892 L -2.732,0 Z" /></g><g
           transform="translate(279.9911,3.0737)"
           id="g64"><path
             id="path66"
             style="fill:#1f1a17;fill-opacity:1;fill-rule:evenodd;stroke:none"
             d="M 0,0 C 3.33,0 7.429,1.195 7.94,3.928 8.367,6.233 5.892,7.77 1.622,7.77 -2.307,7.77 -5.722,6.319 -6.233,3.842 -6.661,1.452 -3.929,0 0,0 m 0.256,1.025 c -2.563,0 -4.185,1.195 -3.842,2.817 0.256,1.452 1.963,2.904 5.037,2.904 3.074,0 4.014,-1.537 3.758,-2.818 C 4.866,2.22 2.731,1.025 0.256,1.025" /></g><g
           transform="translate(292.287,3.2446)"
           id="g68"><path
             id="path70"
             style="fill:#1f1a17;fill-opacity:1;fill-rule:evenodd;stroke:none"
             d="M 0,0 H 2.646 L 3.415,3.928 C 3.501,4.184 3.586,4.44 3.672,4.611 4.27,5.636 5.721,6.319 7.514,6.319 H 8.453 L 8.71,7.6 H 7.94 C 6.232,7.6 4.439,7.002 3.586,5.977 H 3.501 L 3.672,7.429 H 1.365 c 0,-0.683 -0.17,-1.452 -0.341,-2.306 z" /></g><g
           transform="translate(304.1562,3.2446)"
           id="g72"><path
             id="path74"
             style="fill:#1f1a17;fill-opacity:1;fill-rule:evenodd;stroke:none"
             d="M 0,0 H 2.646 L 4.781,10.93 H 2.135 Z" /></g><g
           transform="translate(325.0761,14.1743)"
           id="g76"><path
             id="path78"
             style="fill:#1f1a17;fill-opacity:1;fill-rule:evenodd;stroke:none"
             d="m 0,0 -0.854,-4.44 h -0.085 c -0.513,0.598 -1.879,1.11 -4.184,1.11 -3.501,0 -6.746,-1.537 -7.258,-4.013 -0.427,-2.22 2.049,-3.757 5.465,-3.757 2.391,0 4.269,0.597 5.208,1.451 h 0.086 l -0.086,-1.281 h 2.306 c 0,0.513 0.171,1.281 0.256,1.879 L 2.646,0 Z m -1.537,-7.856 c 0,-0.17 -0.085,-0.341 -0.256,-0.512 -0.598,-1.025 -2.391,-1.622 -4.099,-1.622 -2.818,0 -4.098,1.195 -3.842,2.732 0.341,1.623 2.22,2.903 4.952,2.903 1.964,0 3.245,-0.768 3.416,-1.622 0.171,-0.171 0.085,-0.342 0.085,-0.513 z" /></g><g
           transform="translate(207.1533,75.9106)"
           id="g80"><path
             id="path82"
             style="fill:#a12421;fill-opacity:1;fill-rule:evenodd;stroke:none"
             d="M 0,0 C -0.085,0 -0.171,0.086 -0.256,0.086 -2.305,0.341 -4.27,0.513 -5.635,0.513 h -24.166 c 0.086,-0.172 0.171,-0.257 0.256,-0.427 2.478,-6.49 8.625,-12.467 16.737,-14.773 h 6.916 c 6.32,0 10.674,-4.525 9.736,-10.076 l -0.258,-1.195 c -1.023,-5.55 -7.001,-10.076 -13.405,-10.076 h -28.264 -5.464 l 8.367,46.025 1.025,5.635 1.538,8.454 2.305,12.723 -19.47,0.085 -3.415,-18.7 -12.637,-69.336 h 54.99 c 0.17,0 0.341,0.085 0.512,0.085 0.086,0 0.172,-0.085 0.257,-0.085 0.682,0 1.365,0.085 2.135,0.085 0.17,0.086 0.426,0.086 0.682,0.086 h 0.085 c 9.309,0.854 17.933,5.721 23.569,12.552 3.159,3.843 5.293,8.197 6.147,12.894 C 25.104,-11.698 15.029,-0.342 0,0 m -30.057,36.803 -0.085,0.171 -0.086,0.085 v -0.171 l -0.084,-0.085 h 0.17 z" /></g><g
           transform="translate(235.0761,26.1288)"
           id="g84"><path
             id="path86"
             style="fill:#a12421;fill-opacity:1;fill-rule:evenodd;stroke:none"
             d="M 0,0 24.507,21.006 7.941,41.499 C 10.247,28.264 7.429,13.492 0,0" /></g><g
           transform="translate(324.5634,36.7172)"
           id="g88"><path
             id="path90"
             style="fill:#aba8a8;fill-opacity:1;fill-rule:evenodd;stroke:none"
             d="m 0,0 c -4.013,0 -6.403,0.768 -7.685,1.879 -1.537,1.537 -1.963,5.379 -1.537,7.685 l 4.013,21.347 -8.452,0.085 -1.708,-9.222 c 0,0 -1.026,-5.721 -1.623,-8.795 -1.28,-6.916 -1.111,-11.869 1.623,-14.943 2.646,-3.416 7.087,-4.953 14.089,-4.953 H 3.843 L 5.123,0 Z" /></g><g
           transform="translate(297.9228,56.5273)"
           id="g92"><path
             id="path94"
             style="fill:#aba8a8;fill-opacity:1;fill-rule:evenodd;stroke:none"
             d="m 0,0 c -0.428,-2.476 -2.733,-4.44 -5.123,-4.44 l -12.981,0.085 1.794,9.137 h 12.894 c 2.391,0 3.928,-2.049 3.501,-4.441 z M 7.855,5.038 C 7.173,8.71 4.27,11.357 0.256,11.357 h -3.074 -4.868 -3.501 c -1.366,0 -2.646,0.085 -3.927,-0.086 v 0.171 h -8.368 l -7.258,-38.937 v -0.086 l 8.453,-0.085 2.05,11.015 c 0.256,1.537 0.511,2.476 1.366,3.501 0.683,0.854 1.194,1.281 2.22,1.537 0.854,0.256 2.048,0.256 3.501,0.256 h 9.136 c 1.451,0 2.989,0.342 4.356,1.025 3.5,1.622 6.232,4.953 6.916,8.88 l 0.597,2.904 c 0.171,1.281 0.171,2.476 0,3.586" /></g></g></g></g></svg>